PathFileType	4	(X/Y/Z)	pose_F01_0-94.trc
DataRate	CameraRate	NumFrames	NumMarkers	Units	OrigDataRate	OrigDataStartFrame	OrigNumFrames
30	30	13	21	m	30	37	94
Frame#	Time	CHip			RHip			RKnee			RAnkle			RBigToe			RSmallToe			RHeel			LHip			LKnee			LAnkle			LBigToe			LSmallToe			LHeel			Neck			Nose			RShoulder			RElbow			RWrist			LShoulder			LElbow			LWrist			
		X1	Y1	Z1	X2	Y2	Z2	X3	Y3	Z3	X4	Y4	Z4	X5	Y5	Z5	X6	Y6	Z6	X7	Y7	Z7	X8	Y8	Z8	X9	Y9	Z9	X10	Y10	Z10	X11	Y11	Z11	X12	Y12	Z12	X13	Y13	Z13	X14	Y14	Z14	X15	Y15	Z15	X16	Y16	Z16	X17	Y17	Z17	X18	Y18	Z18	X19	Y19	Z19	X20	Y20	Z20	X21	Y21	Z21	
37	1.2333333333333334	-0.24757552270726502	1.8348367856761643	-0.426363297753753	-0.25808992161305405	1.8330291720399998	-0.36858737813976955																-0.2349195178493466	1.8368916079930957	-0.49845879214876965	-0.23937997599909785	1.7173009634410286	-0.48997619854701074													-0.2410063732227605	1.9904671525339577	-0.4543315230372854	-0.2587729561534648	2.053198426068404	-0.4998239863422361	-2.0117377163867283	1.9020421829862644	1.6438696435472948	-0.27471791100109794	1.9222900978844397	-0.3330429621366767	-0.27688016380927444	1.9792848752852508	-0.4003736435386992	-0.22267307051761945	1.9936882726055267	-0.5435198103007306	-0.2152953970851001	1.9339589434785225	-0.6079242753756078	-0.22648957558609512	1.9808629153325035	-0.5988075042756632
38	1.2666666666666666	-0.24546345461037272	1.8377706119407728	-0.4200982603389953	-0.2559334404078338	1.8382849589345769	-0.36220839829853774																-0.23017455270788129	1.8402104427490222	-0.4823146448133417	-0.23937997599909785	1.7173009634410286	-0.48997619854701074													-0.23991174528592746	1.9924686629072907	-0.451402174793918	-0.252673253953868	2.0539747616422015	-0.4893215329802708	-0.2567664232926702	1.9903466749434768	-0.358078663485709	-0.2715371513046512	1.9137862983717815	-0.3226375969081666	-0.2761184110515792	1.9747336167376304	-0.3655697864241665	-0.22130653195004418	1.994288277627454	-0.5398483974090839	-0.20513529781676118	1.9276822399884668	-0.5807010188836919	-0.21866275827682574	1.975271102413592	-0.5808438891012125
39	1.3	-0.23990381182017992	1.836949115270141	-0.42085816327624653	-0.2511967373208031	1.8325761812499266	-0.35517788516884885																-0.2262143594257317	1.8375116065787973	-0.4811978019334321	-0.23937997599909785	1.7173009634410286	-0.48997619854701074													-0.23684773547905175	1.9848536702316266	-0.4400180245786017	-0.24873944686034682	2.04784410269274	-0.483770011659227	-0.25532333583368394	1.981697360673506	-0.35176912209123035	-0.2676046807895418	1.903690475753831	-0.30175863007900566	-0.2713183077379198	1.9588244716944043	-0.37042732204478984	-1.7049676906906908	1.8908307124127088	1.1126964381453683	-0.19970271216854643	1.916218663078716	-0.5505117560243561	-0.2185795131769522	1.9617673723139333	-0.5690966415275902
40	1.3333333333333333	-0.23822119887736365	1.832943889355988	-0.4135354023329527	-0.24646003423377247	1.826867403565276	-0.34814737203916																-0.22563869094812308	1.8333214676644978	-0.4772186069580439	-0.2354042015100044	1.7180465696851517	-0.481649669639892													-0.23599100248287488	1.981025592981237	-0.42817411669512606	-0.24793949532443657	2.042806364833896	-0.4803029077155067	-0.2545162535469673	1.979306228547971	-0.3483960027610695	-0.2732854813504877	1.9051233164334627	-0.3250714725903365	-0.27560464278316904	1.9571355537254556	-0.39796383355235837	-1.7338944055699683	1.8907022487031522	1.1645556248687183	-0.20627274137761747	1.911382685786396	-0.5435278292766905	-0.21827852462001388	1.9557329311780198	-0.5658419034999576
41	1.3666666666666667	-0.2378551712580047	1.8396654947067117	-0.4197182334420842	-0.24706758032739343	1.8342017113137032	-0.3491887918392349																-0.2242537437100526	1.840945508445164	-0.48012194084527116	-0.23142842702091096	1.7187921759292748	-0.4733231407327732													-0.2321732361043808	1.9826148546906524	-0.4328987765435717	-0.2469723452245963	2.0419444624262852	-0.4773497938572345	-0.2516801575308107	1.979350711260771	-0.3478319039552313	-0.25847945677290673	1.9047371388568257	-0.296282438218391	-0.2591619267578501	1.943382102007081	-0.3546473531088848	-0.21009116332983407	1.9891358242486064	-0.5190106993576646	-0.20474784009996988	1.9202206473435235	-0.5677852427261574	-0.21375927179051107	1.961866393860373	-0.5782029670724453
42	1.4	-0.2324535727104605	1.8450715038295633	-0.4129912680336402	-0.2448174522203756	1.8426167237574949	-0.3526910600614488																-0.2229210462716349	1.8448245752206127	-0.4773898540161078	-0.2274526525318175	1.719537782173398	-0.46499661182565444													-0.2269277934731168	1.984211099183108	-0.4336652433462476	-0.23998314711983665	2.0426930600443183	-0.471913923552444	-0.24265392533046654	1.9797838559981977	-0.3439332556069117	-0.24780605447978374	1.9061577240744882	-0.2803030661235353	-0.254608136733179	1.9422241673868	-0.34957165115040073	-0.2108051741720024	1.9913455284183066	-0.5220128690389161	-0.19873915598824676	1.926322189235188	-0.5871690203300737	-1.5706181983870833	1.8839461955175796	0.8878060128693906
43	1.4333333333333333	-0.22747176808215466	1.8412614386580646	-0.41348940170310955	-0.24293670862258654	1.8398310271496627	-0.3543364784138157																-0.21787965367540546	1.8410484029902014	-0.47799266767177073	-0.22347687804272404	1.7202833884175208	-0.4566700829185356													-0.22406870152481748	1.9812100228216223	-0.4323799472950909	-0.23600062930515048	2.0409861449940023	-0.46740588538467437	-0.2415881410543617	1.9768613180815804	-0.3403632623395676	-0.2422646545228328	1.9053121590629916	-0.2865263083145675	-0.24925692953178158	1.93793222145247	-0.3552962387926922	-1.7275187018967382	1.8911747676913802	1.1574989728982756	-0.1947518443785847	1.9229769684516305	-0.5823926605316101	-1.6198645303624073	1.8855431818145507	0.9733508887847659
44	1.4666666666666666	-0.2253280635625191	1.8392315154040886	-0.41542078925243964	-0.23782106910758086	1.83576890470956	-0.35518707094497576																-0.2165810349253432	1.8388664477676304	-0.4745782132219006	-0.2195011035536306	1.721028994661644	-0.44834355401141684													-0.22225278146470398	1.9792820012547425	-0.43443134999361305	-0.23113407722301432	2.040860780143215	-0.46858351808883103	-0.23793883710939973	1.9760440832526267	-0.344594311570188	-0.2349234332613599	1.9056437236475796	-0.29531870150963524	-0.24401865918925045	1.9370987385656353	-0.361708637528733	-1.7269881430205498	1.8934040895300166	1.1578250952513875	-0.1956026590758413	1.9172590336486481	-0.5557730402914948	-0.1994407389011346	1.9546818378878719	-0.5569938691449478
45	1.5	-0.22150595656345853	1.8387627973487253	-0.4112158745772908	-0.23122098400109634	1.838984561348792	-0.35850318171420276																-0.20694041774398317	1.8402570672754544	-0.46841715204177226	-0.21552532906453714	1.721774600905767	-0.4400170251042981													-0.21924550827701492	1.980741482590017	-0.43375464036883804	-0.22814675896815853	2.040445244254899	-0.4675641087182851	-0.2332556278209854	1.9750156434914155	-0.345554090034891	-0.23092390858476605	1.9063500264063242	-0.2993481837755145	-0.24086063907290942	1.943290885643196	-0.37034098771454216	-1.7481593409738212	1.8931997584247349	1.1946523783570182	-0.1998365449927186	1.9190054002206143	-0.5423610103428094	-0.20660702390798258	1.9606298499472778	-0.5276430562722845
46	1.5333333333333334	-0.21311762704830026	1.8355948390337407	-0.3926360170191435	-0.2225829052694151	1.8342204003387368	-0.33973112164173297																-0.20278390356400922	1.8392369876188432	-0.45470229038899707	-0.21678797854075774	1.7260479131146473	-0.4527382005439393													-0.2102800262258696	1.9782122562977928	-0.4127079468588355	-0.22399771013487882	2.037556485416688	-0.4622529472737443	-0.22875750709837853	1.9755280980607905	-0.33231464467150384	-0.24361511597959842	1.9086117593198784	-0.3223386080826849	-0.24322337497019825	1.9622253724391538	-0.3728174228969493	-0.19333009296643436	1.9817299107722925	-0.4974034202033684	-0.19784181297437614	1.9186417262630044	-0.5445479822778447	-0.20494835364423994	1.956331762664616	-0.5125073974072019
47	1.5666666666666667	-0.2130726282912952	1.8354652326175849	-0.39255426621343753	-0.22270162889995138	1.8336815166645124	-0.3395141274358611																-0.20176858023356492	1.8390519950201185	-0.4512884772108935	-0.21637830795236723	1.7284839907092513	-0.46234180565114313													-0.21031831650284957	1.977152716763008	-0.41249258423496593	-0.22012434722865085	2.0360421813484377	-0.45810808085640453	-0.2288991917041315	1.974548568982541	-0.3322493710572592	-0.25552465219074744	1.9062973648742791	-0.3415955433294798	-0.2506015536335683	1.9637764543128233	-0.4030322725017828	-0.18958710999275616	1.980794500050458	-0.4844996244890673	-0.18922322526788504	1.9211492384732949	-0.5335463825417621	-0.1974703964572441	1.9681484665574813	-0.4981409544217733
48	1.6	-0.21099683966914298	1.8403348538309907	-0.3955164295198744	-0.22249751493109654	1.8354610342654325	-0.3399322709993295																-0.19853966791754232	1.843297877264591	-0.45963942552574855	-0.2127418136737729	1.7289084703389963	-0.46264345625207215													-0.2093834815143227	1.9758172586470206	-0.4094691909494533	-0.2165039166259683	2.0340789857376413	-0.45459739477926947	-0.2272679478336455	1.9721392920924778	-0.33447449712638805	-0.250313177926672	1.9183703811884374	-0.3676477227652494	-0.245533208998747	1.9656444902148573	-0.4126380598065438	-0.1849572802106086	1.979372584950174	-0.47705698155643067	-0.19221995981366718	1.9268538281505263	-0.5354567165429877	-0.20224524572773128	1.9749603711355268	-0.4889223047035664
49	1.6333333333333333	-0.21341907020119283	1.8426034871825736	-0.40239784180434945	-0.221170035359912	1.8374445993140955	-0.34244697274237224																-0.2008829488995127	1.8447314657493545	-0.4663754863799676	-0.2091053193951786	1.7293329499687413	-0.46294510685300116													-0.20756361443484103	1.977248343889775	-0.4121539846368221	-0.21350090750878428	2.0301961294671442	-0.4526125026824192	-0.2234461221680927	1.9733969167250855	-0.3388420575285267	-0.24206423971371582	1.9141341999895916	-0.367063275854011	-0.2327525389681475	1.9656895703623503	-0.42249963933968315	-0.1879223657701731	1.9818999030561195	-0.47887222657255757	-0.19512140250917698	1.93206009205209	-0.5373649869457642	-0.2055563362779084	1.9799282854842046	-0.4840048085263587
